<svg width="643" height="64" viewBox="0 0 643 64" fill="none" xmlns="http://www.w3.org/2000/svg">
<path d="M3.17469 46V18H11.9747C14.1347 18 15.9214 18.36 17.3347 19.08C18.748 19.7733 19.788 20.7333 20.4547 21.96C21.1214 23.16 21.4547 24.5333 21.4547 26.08C21.4547 27.6 21.1214 28.9733 20.4547 30.2C19.788 31.4267 18.748 32.4 17.3347 33.12C15.948 33.84 14.1614 34.2 11.9747 34.2H5.97469V46H3.17469ZM5.97469 31.8H11.9347C14.3347 31.8 16.0414 31.2933 17.0547 30.28C18.068 29.24 18.5747 27.84 18.5747 26.08C18.5747 24.2667 18.068 22.8667 17.0547 21.88C16.0414 20.8667 14.3347 20.36 11.9347 20.36H5.97469V31.8ZM33.5325 46.48C31.6925 46.48 30.0258 46.0533 28.5325 45.2C27.0658 44.32 25.9058 43.0933 25.0525 41.52C24.1992 39.92 23.7725 38.0667 23.7725 35.96C23.7725 33.7733 24.1992 31.8933 25.0525 30.32C25.9325 28.7467 27.1192 27.5333 28.6125 26.68C30.1058 25.8 31.7725 25.36 33.6125 25.36C35.5325 25.36 37.2258 25.8 38.6925 26.68C40.1592 27.5333 41.3192 28.7467 42.1725 30.32C43.0258 31.8933 43.4525 33.7733 43.4525 35.96C43.4525 38.0667 43.0125 39.92 42.1325 41.52C41.2792 43.0933 40.1058 44.32 38.6125 45.2C37.1458 46.0533 35.4525 46.48 33.5325 46.48ZM33.5725 44.08C34.8258 44.08 35.9725 43.7733 37.0125 43.16C38.0792 42.5467 38.9325 41.64 39.5725 40.44C40.2392 39.2133 40.5725 37.7067 40.5725 35.92C40.5725 34.1067 40.2525 32.6 39.6125 31.4C38.9725 30.2 38.1192 29.3067 37.0525 28.72C36.0125 28.1067 34.8658 27.8 33.6125 27.8C32.4125 27.8 31.2792 28.1067 30.2125 28.72C29.1458 29.3333 28.2792 30.24 27.6125 31.44C26.9725 32.6133 26.6525 34.1067 26.6525 35.92C26.6525 37.7067 26.9725 39.2133 27.6125 40.44C28.2525 41.64 29.0925 42.5467 30.1325 43.16C31.1992 43.7733 32.3458 44.08 33.5725 44.08ZM51.625 46L45.705 25.84H48.545L53.345 43.08H52.785L57.985 25.84H61.185L66.385 43.08H65.825L70.625 25.84H73.465L67.545 46H64.705L59.305 27.96H59.865L54.465 46H51.625ZM85.2456 46.48C83.379 46.48 81.7256 46.04 80.2856 45.16C78.8723 44.28 77.7523 43.0533 76.9256 41.48C76.1256 39.88 75.7256 38.0133 75.7256 35.88C75.7256 33.7467 76.1256 31.8933 76.9256 30.32C77.7256 28.7467 78.8456 27.5333 80.2856 26.68C81.7523 25.8 83.4323 25.36 85.3256 25.36C87.2723 25.36 88.9123 25.8 90.2456 26.68C91.6056 27.56 92.6323 28.7067 93.3256 30.12C94.0456 31.5333 94.4056 33.08 94.4056 34.76C94.4056 35.0267 94.4056 35.3067 94.4056 35.6C94.4056 35.8667 94.3923 36.1867 94.3656 36.56H77.8456V34.2H91.6856C91.6323 32.1467 90.9923 30.56 89.7656 29.44C88.5656 28.32 87.0456 27.76 85.2056 27.76C84.0056 27.76 82.8856 28.04 81.8456 28.6C80.8323 29.1333 80.0056 29.9333 79.3656 31C78.7523 32.04 78.4456 33.36 78.4456 34.96V36C78.4456 37.8133 78.7656 39.32 79.4056 40.52C80.0456 41.72 80.8856 42.6133 81.9256 43.2C82.9923 43.7867 84.099 44.08 85.2456 44.08C86.7656 44.08 88.019 43.7467 89.0056 43.08C89.9923 42.3867 90.699 41.44 91.1256 40.24H93.8856C93.539 41.4133 92.979 42.48 92.2056 43.44C91.459 44.4 90.499 45.1467 89.3256 45.68C88.1523 46.2133 86.7923 46.48 85.2456 46.48ZM98.9884 46V25.84H101.548L101.748 29.72C102.175 28.7867 102.748 28 103.468 27.36C104.188 26.72 105.055 26.2267 106.068 25.88C107.082 25.5333 108.228 25.36 109.508 25.36V28.28H108.428C107.575 28.28 106.748 28.4 105.948 28.64C105.148 28.8533 104.442 29.2267 103.828 29.76C103.215 30.2933 102.722 31.0133 102.348 31.92C101.975 32.8267 101.788 33.96 101.788 35.32V46H98.9884ZM121.222 46.48C119.356 46.48 117.702 46.04 116.262 45.16C114.849 44.28 113.729 43.0533 112.902 41.48C112.102 39.88 111.702 38.0133 111.702 35.88C111.702 33.7467 112.102 31.8933 112.902 30.32C113.702 28.7467 114.822 27.5333 116.262 26.68C117.729 25.8 119.409 25.36 121.302 25.36C123.249 25.36 124.889 25.8 126.222 26.68C127.582 27.56 128.609 28.7067 129.302 30.12C130.022 31.5333 130.382 33.08 130.382 34.76C130.382 35.0267 130.382 35.3067 130.382 35.6C130.382 35.8667 130.369 36.1867 130.342 36.56H113.822V34.2H127.662C127.609 32.1467 126.969 30.56 125.742 29.44C124.542 28.32 123.022 27.76 121.182 27.76C119.982 27.76 118.862 28.04 117.822 28.6C116.809 29.1333 115.982 29.9333 115.342 31C114.729 32.04 114.422 33.36 114.422 34.96V36C114.422 37.8133 114.742 39.32 115.382 40.52C116.022 41.72 116.862 42.6133 117.902 43.2C118.969 43.7867 120.076 44.08 121.222 44.08C122.742 44.08 123.996 43.7467 124.982 43.08C125.969 42.3867 126.676 41.44 127.102 40.24H129.862C129.516 41.4133 128.956 42.48 128.182 43.44C127.436 44.4 126.476 45.1467 125.302 45.68C124.129 46.2133 122.769 46.48 121.222 46.48ZM143.765 46.48C141.818 46.48 140.112 46.0267 138.645 45.12C137.205 44.1867 136.085 42.92 135.285 41.32C134.485 39.72 134.085 37.9067 134.085 35.88C134.085 33.8533 134.485 32.0533 135.285 30.48C136.085 28.88 137.218 27.6267 138.685 26.72C140.152 25.8133 141.858 25.36 143.805 25.36C145.512 25.36 147.005 25.7333 148.285 26.48C149.592 27.2 150.592 28.2267 151.285 29.56V17.2H154.085V46H151.525L151.285 42.36C150.858 43.0533 150.298 43.72 149.605 44.36C148.938 45 148.112 45.52 147.125 45.92C146.165 46.2933 145.045 46.48 143.765 46.48ZM144.005 44.04C145.418 44.04 146.645 43.7067 147.685 43.04C148.752 42.3733 149.578 41.4267 150.165 40.2C150.778 38.9733 151.085 37.5467 151.085 35.92C151.085 34.2933 150.778 32.8667 150.165 31.64C149.578 30.4133 148.752 29.4667 147.685 28.8C146.645 28.1333 145.418 27.8 144.005 27.8C142.618 27.8 141.392 28.1333 140.325 28.8C139.258 29.4667 138.418 30.4133 137.805 31.64C137.218 32.84 136.925 34.2667 136.925 35.92C136.925 37.5733 137.232 39.0133 137.845 40.24C138.458 41.44 139.298 42.3733 140.365 43.04C141.432 43.7067 142.645 44.04 144.005 44.04ZM181.065 46.48C179.892 46.48 178.812 46.3067 177.825 45.96C176.865 45.5867 176.025 45.0933 175.305 44.48C174.585 43.84 174.012 43.12 173.585 42.32L173.345 46H170.785V17.2H173.585V29.48C174.252 28.3333 175.212 27.36 176.465 26.56C177.719 25.76 179.252 25.36 181.065 25.36C183.039 25.36 184.759 25.8267 186.225 26.76C187.692 27.6667 188.812 28.92 189.585 30.52C190.385 32.0933 190.785 33.8933 190.785 35.92C190.785 37.9467 190.385 39.76 189.585 41.36C188.785 42.96 187.652 44.2133 186.185 45.12C184.745 46.0267 183.039 46.48 181.065 46.48ZM180.865 44.04C182.279 44.04 183.505 43.7067 184.545 43.04C185.585 42.3733 186.412 41.4267 187.025 40.2C187.639 38.9733 187.945 37.5467 187.945 35.92C187.945 34.2667 187.639 32.84 187.025 31.64C186.412 30.4133 185.572 29.4667 184.505 28.8C183.465 28.1333 182.252 27.8 180.865 27.8C179.479 27.8 178.239 28.1333 177.145 28.8C176.079 29.4667 175.239 30.4133 174.625 31.64C174.039 32.8667 173.745 34.2933 173.745 35.92C173.745 37.5733 174.039 39.0133 174.625 40.24C175.239 41.44 176.079 42.3733 177.145 43.04C178.239 43.7067 179.479 44.04 180.865 44.04ZM196.147 54.8L201.107 43.76H200.027L192.067 25.84H195.107L201.987 41.84L209.227 25.84H212.107L199.067 54.8H196.147Z" fill="white"/>
<path d="M577.553 34.6939C577.508 37.6916 577.36 40.6903 577.123 43.6586L577.018 44.9114L576.201 45.8809C571.182 51.8029 565.583 57.4258 559.687 62.4684L558.722 63.2889L557.475 63.3928C549.753 64.0045 541.837 64.0045 534.115 63.3928L532.866 63.2889L531.901 62.4684C526.005 57.4258 520.407 51.8029 515.387 45.8809L514.571 44.9114L514.467 43.6586C513.859 35.9016 513.859 27.9515 514.467 20.1945L514.571 18.9417L515.387 17.9722C520.407 12.0503 526.005 6.4264 531.901 1.38477L532.866 0.564281L534.115 0.46034C537.055 0.221183 540.083 0.0868858 543.052 0.0270964C543.172 2.93654 544.152 5.60591 545.741 7.82915C542.489 7.82915 539.209 7.94781 536 8.17133C531.085 12.4532 526.407 17.1517 522.145 22.0894C521.685 28.6073 521.685 35.2458 522.145 41.7638C526.407 46.7014 531.085 51.4 536 55.6818C542.491 56.1436 549.099 56.1436 555.589 55.6818C560.504 51.4 565.182 46.7014 569.444 41.7638C569.667 38.5425 569.786 35.232 569.786 31.9804C571.999 33.5616 574.672 34.5743 577.553 34.6939ZM575.281 26.2213C575.295 26.236 575.325 26.236 575.355 26.2507L575.489 26.3252C575.414 26.2949 575.355 26.2654 575.281 26.2213Z" fill="white"/>
<path fill-rule="evenodd" clip-rule="evenodd" d="M575.454 26.3946L577.49 27.3731L577.527 29.8089C577.55 31.4681 577.547 33.13 577.517 34.792C574.628 34.6739 571.959 33.6945 569.759 32.1026C566.152 29.4916 563.802 25.2297 563.802 20.4126C563.802 16.788 560.883 13.8468 557.288 13.8468C552.51 13.8468 548.277 11.4802 545.678 7.84825L545.677 7.84456C544.092 5.62645 543.117 2.93706 543 0.0263171C544.648 -0.00504074 546.297 -0.00780856 547.944 0.0152487L550.36 0.0512193L551.4 2.25088C552.448 4.46714 554.692 6.0009 557.288 6.0009C565.18 6.0009 571.587 12.4578 571.587 20.4126C571.587 23.0005 573.079 25.2315 575.241 26.294C575.311 26.3281 575.383 26.3632 575.454 26.3946Z" fill="white"/>
<path fill-rule="evenodd" clip-rule="evenodd" d="M577.195 8.88892C574.533 9.35447 571.583 9.34983 568.922 8.87687C568.471 6.13182 568.475 3.08909 568.934 0.345904C571.595 -0.11964 574.546 -0.115003 577.206 0.35796C577.658 3.103 577.654 6.14573 577.195 8.88892Z" fill="white"/>
<path d="M434.46 29.1577C434.505 26.1599 434.653 23.1613 434.89 20.1929L434.995 18.9401L435.812 17.9706C440.831 12.0487 446.429 6.42575 452.325 1.38321L453.29 0.562712L454.538 0.45877C462.26 -0.15292 470.176 -0.15292 477.898 0.458772L479.146 0.562714L480.112 1.38321C486.007 6.42575 491.605 12.0487 496.625 17.9706L497.442 18.9401L497.546 20.1929C498.154 27.9499 498.154 35.9001 497.546 43.6571L497.442 44.9099L496.625 45.8794C491.605 51.8013 486.007 57.4252 480.112 62.4668L479.146 63.2873L477.898 63.3912C474.957 63.6304 471.93 63.7647 468.96 63.8245C468.841 60.915 467.861 58.2457 466.272 56.0224C469.524 56.0224 472.804 55.9037 476.012 55.6802C480.928 51.3984 485.606 46.6999 489.868 41.7622C490.328 35.2442 490.328 28.6058 489.868 22.0878C485.606 17.1501 480.928 12.4516 476.012 8.16976C469.522 7.708 462.914 7.708 456.424 8.16976C451.509 12.4516 446.83 17.1501 442.568 22.0878C442.346 25.3091 442.227 28.6196 442.227 31.8712C440.014 30.29 437.341 29.2772 434.46 29.1577ZM436.732 37.6303C436.717 37.6156 436.687 37.6156 436.658 37.6008L436.524 37.5263C436.599 37.5567 436.658 37.5861 436.732 37.6303Z" fill="white"/>
<path fill-rule="evenodd" clip-rule="evenodd" d="M436.559 37.5536L434.523 36.5811L434.487 34.1604C434.464 32.5114 434.467 30.8597 434.497 29.208C437.386 29.3253 440.055 30.2988 442.255 31.8808C445.861 34.4757 448.211 38.7113 448.211 43.4986C448.211 47.1009 451.131 50.0239 454.726 50.0239C459.504 50.0239 463.737 52.3759 466.336 55.9854L466.337 55.9891C467.922 58.1935 468.896 60.8663 469.013 63.7591C467.366 63.7902 465.717 63.793 464.07 63.7701L461.654 63.7343L460.614 61.5482C459.566 59.3457 457.322 57.8214 454.726 57.8214C446.833 57.8214 440.427 51.4043 440.427 43.4986C440.427 40.9267 438.935 38.7094 436.773 37.6535C436.703 37.6196 436.631 37.5848 436.559 37.5536Z" fill="white"/>
<path fill-rule="evenodd" clip-rule="evenodd" d="M434.819 55.103C437.48 54.6483 440.431 54.6528 443.091 55.1148C443.543 57.796 443.538 60.768 443.079 63.4474C440.418 63.9021 437.468 63.8976 434.807 63.4356C434.356 60.7544 434.36 57.7824 434.819 55.103Z" fill="white"/>
<path fill-rule="evenodd" clip-rule="evenodd" d="M279.635 63.121H243V2.16756H251.192V55.5682H279.635V63.121ZM307.333 49.3316L301.857 63.121H293.142L317.891 2.16756H323.817L348.479 63.121H339.591L334.16 49.3316H307.333ZM331.323 42.1304L320.805 15.4204L310.195 42.1304H331.323ZM410.216 38.1773H389.224V30.6245H418.854V31.8541C418.854 38.9384 417.605 44.8824 415.107 49.6832C412.667 54.426 409.238 57.9981 404.823 60.3985C400.466 62.7998 395.469 64 389.834 64C385.593 64 381.613 63.2094 377.895 61.6281C374.235 59.9889 371.01 57.7348 368.221 54.865C365.49 51.9961 363.342 48.6588 361.773 44.8529C360.204 41.0471 359.419 36.9476 359.419 32.5564C359.419 28.1652 360.204 24.0951 361.773 20.3482C363.342 16.5424 365.52 13.205 368.309 10.3352C371.097 7.46629 374.351 5.24169 378.069 3.66044C381.846 2.0792 385.942 1.28857 390.357 1.28857C395.179 1.28857 399.624 2.22554 403.69 4.09947C407.757 5.97341 411.156 8.66649 413.887 12.1797L408.222 17.8889C406.305 15.078 403.777 12.9408 400.64 11.4774C397.503 9.95505 394.075 9.19388 390.357 9.19388C385.942 9.19388 382.02 10.1888 378.592 12.1797C375.222 14.1705 372.579 16.9225 370.661 20.4356C368.803 23.9488 367.873 27.9894 367.873 32.5564C367.873 37.1823 368.831 41.2514 370.749 44.7646C372.666 48.2777 375.251 51.0297 378.505 53.0205C381.758 55.0114 385.477 56.0072 389.659 56.0072C393.9 56.0072 397.561 55.1872 400.64 53.5479C403.777 51.9087 406.188 49.5074 407.873 46.3458C409.102 43.9969 409.883 41.2744 410.216 38.1773ZM603.609 17.8383V63.121H595.417V2.16756H601.17L634.808 47.2653V2.16756H643V63.121H637.248L603.609 17.8383Z" fill="white"/>
</svg>
